<svg width="126" height="27" viewBox="0 0 126 27" fill="none" xmlns="http://www.w3.org/2000/svg">
<path d="M9.46092 26.4215C7.67912 26.4478 6.11127 26.0639 4.75739 25.2699C3.40318 24.4538 2.34204 23.3694 1.57396 22.0166C0.805887 20.6638 0.409981 19.1845 0.386247 17.5786C0.362512 15.9728 0.703689 14.4936 1.40978 13.141C2.13754 11.7661 3.15533 10.6619 4.46316 9.82853C5.79298 8.99479 7.37079 8.56442 9.19659 8.53744C10.9784 8.5111 12.5131 8.88446 13.8006 9.65752C15.1099 10.4082 16.0931 11.4278 16.7502 12.7163L13.2361 13.8903C12.8295 13.1703 12.2602 12.6176 11.5285 12.2324C10.8184 11.8248 10.0343 11.6274 9.17644 11.6401C8.20855 11.6544 7.33238 11.9204 6.54795 12.438C5.78519 12.9333 5.17933 13.6244 4.73039 14.5111C4.30344 15.3975 4.09826 16.4016 4.11484 17.5235C4.13142 18.6454 4.37719 19.6429 4.85214 20.5159C5.3491 21.3887 5.98643 22.0834 6.76415 22.5999C7.56354 23.0942 8.43619 23.3343 9.38208 23.3203C10.262 23.3073 11.0945 23.064 11.8796 22.5903C12.6647 22.1167 13.1843 21.5479 13.4385 20.8841L17.0177 21.8873C16.465 23.1936 15.5239 24.2746 14.1944 25.1304C12.8645 25.9641 11.2867 26.3945 9.46092 26.4215ZM29.5597 11.6688C28.1525 11.7336 26.9035 12.0821 25.8127 12.7143C24.7436 13.3242 23.9864 14.1935 23.541 15.3222L23.6971 25.881L20.0675 25.9347L19.8124 8.67756L23.178 8.62782L23.2351 12.4884C23.8115 11.2917 24.5784 10.3343 25.5359 9.61608C26.4931 8.87585 27.5101 8.46478 28.587 8.38285C28.785 8.37993 28.961 8.37733 29.115 8.37505C29.2689 8.37278 29.4011 8.38182 29.5114 8.4022L29.5597 11.6688ZM39.9439 25.9709C38.1621 25.9973 36.5943 25.6134 35.2404 24.8193C33.8865 24.0252 32.8257 22.9628 32.0579 21.632C31.2899 20.2792 30.894 18.7999 30.8702 17.1941C30.8462 15.5663 31.198 14.0649 31.9258 12.69C32.6535 11.3151 33.6823 10.2108 35.0121 9.37701C36.342 8.54326 37.9088 8.11306 39.7126 8.0864C41.5164 8.05974 43.0844 8.45461 44.4166 9.27101C45.7485 10.0654 46.7763 11.1283 47.5001 12.4598C48.2458 13.7909 48.6301 15.2264 48.6528 16.7662C48.661 17.3162 48.6345 17.7566 48.5734 18.0875L34.7479 18.2919C34.8288 19.3028 35.117 20.1896 35.6123 20.9524C36.1293 21.6928 36.765 22.2775 37.5194 22.7064C38.2955 23.113 39.1345 23.3096 40.0364 23.2963C41.0043 23.282 41.9136 23.0265 42.7644 22.5299C43.6151 22.0333 44.1996 21.3865 44.5179 20.5898L47.6327 21.4348C47.058 22.7414 46.0839 23.823 44.7104 24.6794C43.3585 25.5134 41.7697 25.9439 39.9439 25.9709ZM34.6133 15.8846L45.0401 15.7305C44.9375 14.7419 44.6387 13.8772 44.1437 13.1365C43.6484 12.3737 43.0127 11.789 42.2366 11.3825C41.4822 10.9536 40.643 10.7459 39.7191 10.7596C38.8172 10.7729 37.9845 11.0053 37.2211 11.4566C36.4794 11.8856 35.8722 12.4886 35.3997 13.2657C34.9268 14.0208 34.6646 14.8937 34.6133 15.8846ZM40.8023 5.89206L38.4158 5.20125L40.243 1.54385L43.7076 1.49264L40.8023 5.89206ZM50.4143 20.4366C50.398 19.3367 50.6918 18.3753 51.2957 17.5523C51.8993 16.7072 52.7478 16.0566 53.8412 15.6004C54.9562 15.1219 56.2397 14.8719 57.6915 14.8504C58.4614 14.8391 59.2433 14.8935 60.0372 15.0138C60.8527 15.1117 61.5701 15.2662 62.1892 15.477L62.1732 14.3882C62.1553 13.1783 61.7783 12.2378 61.0423 11.5666C60.3063 10.8954 59.2564 10.5698 57.8926 10.59C56.9467 10.604 56.0362 10.7825 55.1612 11.1254C54.2861 11.4684 53.3804 11.9658 52.4439 12.6177L51.187 10.1941C52.3198 9.42923 53.4554 8.85138 54.5937 8.46052C55.7537 8.04733 56.9717 7.83131 58.2475 7.81245C60.5573 7.77831 62.3812 8.36742 63.7193 9.57978C65.079 10.7698 65.7754 12.4867 65.8086 14.7305L65.9037 21.1648C65.9099 21.5827 65.9803 21.8787 66.1149 22.0527C66.2714 22.2264 66.5259 22.3217 66.8782 22.3385L66.9211 25.2422C66.5921 25.313 66.2958 25.3614 66.0321 25.3873C65.7685 25.4132 65.5487 25.4275 65.3727 25.4301C64.5808 25.4418 63.9841 25.2636 63.5826 24.8955C63.2028 24.505 62.9763 24.0683 62.9032 23.5854L62.7895 22.5969C62.0559 23.5759 61.1101 24.3379 59.952 24.8831C58.7939 25.4283 57.621 25.7097 56.4331 25.7272C55.2892 25.7441 54.2629 25.5283 53.3542 25.0797C52.4451 24.609 51.7316 23.9705 51.2136 23.1641C50.6957 22.3576 50.4292 21.4485 50.4143 20.4366ZM61.4177 21.3301C61.9811 20.7497 62.2591 20.2065 62.2517 19.7006L62.2224 17.7208C60.9174 17.256 59.594 17.0336 58.2521 17.0534C56.9323 17.0729 55.8584 17.3638 55.0307 17.9261C54.2245 18.4661 53.8282 19.187 53.8415 20.0889C53.8525 20.8368 54.1598 21.5254 54.7631 22.1545C55.3882 22.7613 56.2726 23.0563 57.4165 23.0394C58.1864 23.028 58.932 22.863 59.6534 22.5443C60.3748 22.2256 60.9629 21.8209 61.4177 21.3301ZM79.8275 24.1603C79.3688 24.3871 78.7347 24.6495 77.925 24.9475C77.115 25.2235 76.248 25.3683 75.3241 25.382C74.1802 25.3989 73.1858 25.1056 72.3408 24.502C71.5178 23.8981 71.096 22.9032 71.0755 21.5174L70.9161 10.7275L68.6393 10.7612L68.5978 7.9565L70.8746 7.92285L70.7907 2.24747L74.4203 2.19382L74.5042 7.8692L78.2658 7.81361L78.3072 10.6183L74.5457 10.6739L74.6881 20.3088C74.7412 20.9241 74.9348 21.3723 75.269 21.6534C75.6249 21.9122 76.0558 22.0378 76.5617 22.0303C77.0677 22.0229 77.5503 21.9277 78.0096 21.7449C78.469 21.5621 78.8078 21.4141 79.0262 21.3008L79.8275 24.1603ZM82.0576 4.91925L81.9986 0.926688L85.6282 0.873041L85.6872 4.8656L82.0576 4.91925ZM82.3546 25.0141L82.0996 7.75694L85.7292 7.7033L85.9842 24.9604L82.3546 25.0141ZM98.105 25.1113C96.3012 25.138 94.7223 24.7543 93.3684 23.9602C92.0362 23.1438 90.9972 22.07 90.2515 20.7389C89.5054 19.3858 89.1205 17.9063 89.0968 16.3005C89.073 14.6946 89.4142 13.2154 90.1203 11.8629C90.8481 10.4879 91.8659 9.38379 93.1737 8.55037C94.5032 7.69463 96.0588 7.25359 97.8406 7.22725C99.6224 7.20092 101.179 7.59595 102.512 8.41235C103.866 9.20643 104.916 10.28 105.662 11.6331C106.429 12.9639 106.825 14.4323 106.849 16.0381C106.873 17.6439 106.532 19.1341 105.826 20.5087C105.12 21.8613 104.102 22.9654 102.772 23.8212C101.465 24.6546 99.9088 25.0846 98.105 25.1113ZM92.8259 16.2784C92.8421 17.3782 93.0877 18.3647 93.5627 19.2378C94.0376 20.1109 94.6638 20.7947 95.4412 21.2892C96.2186 21.7838 97.0912 22.0239 98.0591 22.0096C99.005 21.9957 99.8592 21.73 100.622 21.2127C101.406 20.673 102.022 19.9598 102.471 19.0731C102.92 18.1864 103.136 17.1931 103.12 16.0932C103.104 14.9933 102.858 14.0068 102.383 13.1338C101.908 12.2607 101.271 11.577 100.472 11.0828C99.6942 10.5662 98.8324 10.3149 97.8865 10.3289C96.9406 10.3429 96.0756 10.6197 95.2915 11.1594C94.529 11.6767 93.9235 12.3897 93.4749 13.2984C93.0259 14.1852 92.8096 15.1785 92.8259 16.2784ZM125.671 24.3738L122.041 24.4275L121.898 14.7595C121.874 13.1317 121.593 11.9587 121.054 11.2406C120.537 10.5002 119.773 10.1374 118.761 10.1524C118.057 10.1628 117.355 10.3492 116.657 10.7116C115.98 11.0736 115.371 11.5666 114.83 12.1907C114.29 12.8148 113.904 13.5135 113.673 14.287L113.825 24.5489L110.195 24.6026L109.94 7.34545L113.24 7.29668L113.291 10.7613C113.934 9.60767 114.878 8.68063 116.121 7.98017C117.365 7.27971 118.746 6.91827 120.264 6.89583C121.628 6.87567 122.688 7.19003 123.446 7.8389C124.203 8.46578 124.733 9.30505 125.034 10.3567C125.336 11.4084 125.496 12.5721 125.515 13.848L125.671 24.3738Z" fill="white"/>
</svg>
