<svg width="139" height="26" viewBox="0 0 139 26" fill="none" xmlns="http://www.w3.org/2000/svg">
<path d="M4.336 8.434V25H0.64V1.57H3.676L16.942 18.499V1.603H20.671V25H17.437L4.336 8.434ZM32.9408 25.33C31.1368 25.33 29.5638 24.923 28.2218 24.109C26.9018 23.273 25.8788 22.184 25.1528 20.842C24.4268 19.478 24.0638 17.993 24.0638 16.387C24.0638 14.781 24.4268 13.307 25.1528 11.965C25.9008 10.601 26.9348 9.512 28.2548 8.698C29.5968 7.862 31.1588 7.444 32.9408 7.444C34.7228 7.444 36.2738 7.862 37.5938 8.698C38.9358 9.512 39.9698 10.601 40.6958 11.965C41.4438 13.307 41.8178 14.781 41.8178 16.387C41.8178 17.993 41.4548 19.478 40.7288 20.842C40.0028 22.184 38.9688 23.273 37.6268 24.109C36.3068 24.923 34.7448 25.33 32.9408 25.33ZM27.7928 16.42C27.7928 17.52 28.0238 18.51 28.4858 19.39C28.9478 20.27 29.5638 20.963 30.3338 21.469C31.1038 21.975 31.9728 22.228 32.9408 22.228C33.8868 22.228 34.7448 21.975 35.5148 21.469C36.3068 20.941 36.9338 20.237 37.3958 19.357C37.8578 18.477 38.0888 17.487 38.0888 16.387C38.0888 15.287 37.8578 14.297 37.3958 13.417C36.9338 12.537 36.3068 11.844 35.5148 11.338C34.7448 10.81 33.8868 10.546 32.9408 10.546C31.9948 10.546 31.1258 10.81 30.3338 11.338C29.5638 11.844 28.9478 12.548 28.4858 13.45C28.0238 14.33 27.7928 15.32 27.7928 16.42ZM44.8724 18.301V7.741H48.5024V17.575C48.5024 20.677 49.6024 22.228 51.8024 22.228C52.8364 22.228 53.8154 21.909 54.7394 21.271C55.6634 20.611 56.3784 19.687 56.8844 18.499V7.741H60.5144V20.908C60.5144 21.326 60.5914 21.623 60.7454 21.799C60.8994 21.975 61.1524 22.074 61.5044 22.096V25C61.1304 25.066 60.8224 25.11 60.5804 25.132C60.3384 25.154 60.1074 25.165 59.8874 25.165C59.2274 25.165 58.6774 24.989 58.2374 24.637C57.7974 24.285 57.5444 23.812 57.4784 23.218L57.4124 21.502C56.6424 22.756 55.6414 23.713 54.4094 24.373C53.1774 25.011 51.8244 25.33 50.3504 25.33C48.5464 25.33 47.1824 24.736 46.2584 23.548C45.3344 22.36 44.8724 20.611 44.8724 18.301ZM69.9325 25L63.3655 7.741H67.1275L72.0445 21.634L76.9615 7.741H80.4595L73.8925 25H69.9325ZM90.3056 25.33C88.5236 25.33 86.9616 24.923 85.6196 24.109C84.2776 23.295 83.2326 22.217 82.4846 20.875C81.7366 19.511 81.3626 18.026 81.3626 16.42C81.3626 14.792 81.7366 13.296 82.4846 11.932C83.2326 10.568 84.2776 9.479 85.6196 8.665C86.9616 7.851 88.5346 7.444 90.3386 7.444C92.1426 7.444 93.7046 7.862 95.0246 8.698C96.3446 9.512 97.3566 10.59 98.0606 11.932C98.7866 13.274 99.1496 14.715 99.1496 16.255C99.1496 16.805 99.1166 17.245 99.0506 17.575H85.2236C85.2896 18.587 85.5646 19.478 86.0486 20.248C86.5546 20.996 87.1816 21.59 87.9296 22.03C88.6996 22.448 89.5356 22.657 90.4376 22.657C91.4056 22.657 92.3186 22.415 93.1766 21.931C94.0346 21.447 94.6286 20.809 94.9586 20.017L98.0606 20.908C97.4666 22.206 96.4766 23.273 95.0906 24.109C93.7266 24.923 92.1316 25.33 90.3056 25.33ZM85.1246 15.166H95.5526C95.4646 14.176 95.1786 13.307 94.6946 12.559C94.2106 11.789 93.5836 11.195 92.8136 10.777C92.0656 10.337 91.2296 10.117 90.3056 10.117C89.4036 10.117 88.5676 10.337 87.7976 10.777C87.0496 11.195 86.4336 11.789 85.9496 12.559C85.4656 13.307 85.1906 14.176 85.1246 15.166ZM102.144 0.909999H105.774V20.017C105.774 20.897 105.906 21.458 106.17 21.7C106.434 21.942 106.764 22.063 107.16 22.063C107.6 22.063 108.018 22.019 108.414 21.931C108.81 21.843 109.14 21.733 109.404 21.601L109.932 24.472C109.404 24.692 108.777 24.879 108.051 25.033C107.325 25.187 106.676 25.264 106.104 25.264C104.872 25.264 103.904 24.923 103.2 24.241C102.496 23.537 102.144 22.569 102.144 21.337V0.909999ZM112.069 0.909999H115.699V20.017C115.699 20.897 115.831 21.458 116.095 21.7C116.359 21.942 116.689 22.063 117.085 22.063C117.525 22.063 117.943 22.019 118.339 21.931C118.735 21.843 119.065 21.733 119.329 21.601L119.857 24.472C119.329 24.692 118.702 24.879 117.976 25.033C117.25 25.187 116.601 25.264 116.029 25.264C114.797 25.264 113.829 24.923 113.125 24.241C112.421 23.537 112.069 22.569 112.069 21.337V0.909999ZM129.783 25.33C128.001 25.33 126.439 24.923 125.097 24.109C123.755 23.295 122.71 22.217 121.962 20.875C121.214 19.511 120.84 18.026 120.84 16.42C120.84 14.792 121.214 13.296 121.962 11.932C122.71 10.568 123.755 9.479 125.097 8.665C126.439 7.851 128.012 7.444 129.816 7.444C131.62 7.444 133.182 7.862 134.502 8.698C135.822 9.512 136.834 10.59 137.538 11.932C138.264 13.274 138.627 14.715 138.627 16.255C138.627 16.805 138.594 17.245 138.528 17.575H124.701C124.767 18.587 125.042 19.478 125.526 20.248C126.032 20.996 126.659 21.59 127.407 22.03C128.177 22.448 129.013 22.657 129.915 22.657C130.883 22.657 131.796 22.415 132.654 21.931C133.512 21.447 134.106 20.809 134.436 20.017L137.538 20.908C136.944 22.206 135.954 23.273 134.568 24.109C133.204 24.923 131.609 25.33 129.783 25.33ZM124.602 15.166H135.03C134.942 14.176 134.656 13.307 134.172 12.559C133.688 11.789 133.061 11.195 132.291 10.777C131.543 10.337 130.707 10.117 129.783 10.117C128.881 10.117 128.045 10.337 127.275 10.777C126.527 11.195 125.911 11.789 125.427 12.559C124.943 13.307 124.668 14.176 124.602 15.166Z" fill="white"/>
</svg>
